<mxfile host="app.diagrams.net" modified="2024-04-07T13:30:45.987Z" agent="Mozilla/5.0 (Windows NT 10.0; Win64; x64) AppleWebKit/537.36 (KHTML, like Gecko) Chrome/123.0.0.0 Safari/537.36" version="24.2.2" etag="2-9xDA63meoJER0mZK91" type="github">
  <diagram name="Page-1" id="fhkX5pYwXphAVTb1Ma6D">
    <mxGraphModel>
      <root>
        <mxCell id="0" />
        <mxCell id="1" parent="0" />
      </root>
    </mxGraphModel>
  </diagram>
</mxfile>
